:FULLY-SPECIFIED
:FORCE-ALL-JOINTS-BE-3DOF
:DEGREES
679
root 5.35011 16.3642 0.948817 15.1519 -24.2382 0.152954
lfemur -39.1526 26.1505 -2.51094
ltibia 111.152 0 0
lfoot 14.7412 -18.212 0
ltoes 15.2341 0 0
rfemur -36.2763 -11.4843 25.3352
rtibia 56.6899 0 0
rfoot -21.3936 -4.25496 0
rtoes 1.79579 0 0
lowerback 1.6987 -6.28524 -1.08098
upperback -1.76391 -8.40082 0.259226
thorax -2.59709 -4.17559 1.20128
lowerneck -8.51331 -4.08999 0.443294
upperneck 3.04631 -5.69411 3.21214
head 2.55343 -2.72283 0.674859
lclavicle -8.25501e-14 -1.9032e-14 0
lhumerus 16.9436 -55.1925 47.378
lradius 90.4438 0 0
lwrist 30.6319 0 0
lhand -14.3247 -1.12507 0
lfingers 7.12502 0 0
lthumb 11.8139 28.4882 0
rclavicle -8.25501e-14 -1.9032e-14 0
rhumerus -43.4084 -6.89934 -42.9301
rradius 83.6155 0 0
rwrist -18.8015 0 0
rhand -27.4286 -46.2146 0
rfingers 7.12502 0 0
rthumb -0.834011 -796.191 0
680
root 5.34375 16.3677 1.07429 15.0546 -25.3512 0.144958
lfemur -39.9582 26.2052 -1.53278
ltibia 113.901 0 0
lfoot 16.6618 -19.3421 0
ltoes 15.0443 0 0
rfemur -35.2979 -10.7887 24.9292
rtibia 56.2716 0 0
rfoot -21.8769 -4.26656 0
rtoes 1.75161 0 0
lowerback 1.78351 -6.36864 -0.903159
upperback -1.76225 -8.51184 0.283907
thorax -2.65501 -4.23267 1.14013
lowerneck -8.46949 -3.97107 0.48095
upperneck 3.0437 -5.52894 3.05749
head 2.53013 -2.64642 0.628883
lclavicle -8.42013e-14 -1.94424e-14 0
lhumerus 19.2207 -54.6026 44.4287
lradius 91.0843 0 0
lwrist 30.8421 0 0
lhand -14.6725 -1.30547 0
lfingers 7.12502 0 0
lthumb 11.4791 28.3342 0
rclavicle -8.42013e-14 -1.94424e-14 0
rhumerus -43.4732 -6.94659 -41.686
rradius 84.4778 0 0
rwrist -18.8961 0 0
rhand -27.3565 -46.1421 0
rfingers 7.12502 0 0
rthumb -0.764376 -796.12 0
681
root 5.33739 16.3712 1.19976 14.9572 -26.4642 0.136963
lfemur -40.7638 26.2599 -0.554628
ltibia 116.649 0 0
lfoot 18.5824 -20.4722 0
ltoes 14.8545 0 0
rfemur -34.3196 -10.0932 24.5232
rtibia 55.8533 0 0
rfoot -22.3602 -4.27817 0
rtoes 1.70744 0 0
lowerback 1.86832 -6.45204 -0.725337
upperback -1.76058 -8.62286 0.308588
thorax -2.71293 -4.28975 1.07898
lowerneck -8.42567 -3.85215 0.518605
upperneck 3.04109 -5.36377 2.90285
head 2.50684 -2.57001 0.582907
lclavicle -8.58525e-14 -1.98528e-14 0
lhumerus 21.4977 -54.0128 41.4794
lradius 91.7248 0 0
lwrist 31.0523 0 0
lhand -15.0203 -1.48586 0
lfingers 7.12502 0 0
lthumb 11.1442 28.1803 0
rclavicle -8.58525e-14 -1.98528e-14 0
rhumerus -43.5381 -6.99383 -40.4419
rradius 85.34 0 0
rwrist -18.9906 0 0
rhand -27.2844 -46.0697 0
rfingers 7.12502 0 0
rthumb -0.694742 -796.048 0
682
root 5.33103 16.3747 1.32523 14.8599 -27.5773 0.128967
lfemur -41.5694 26.3146 0.423526
ltibia 119.398 0 0
lfoot 20.5029 -21.6023 0
ltoes 14.6646 0 0
rfemur -33.3412 -9.39772 24.1172
rtibia 55.4351 0 0
rfoot -22.8434 -4.28977 0
rtoes 1.66326 0 0
lowerback 1.95313 -6.53545 -0.547515
upperback -1.75891 -8.73388 0.333269
thorax -2.77084 -4.34683 1.01782
lowerneck -8.38185 -3.73322 0.556261
upperneck 3.03849 -5.1986 2.74821
head 2.48354 -2.4936 0.536931
lclavicle -8.75037e-14 -2.02632e-14 0
lhumerus 23.7748 -53.4229 38.5301
lradius 92.3653 0 0
lwrist 31.2624 0 0
lhand -15.368 -1.66626 0
lfingers 7.12502 0 0
lthumb 10.8093 28.0263 0
rclavicle -8.75037e-14 -2.02632e-14 0
rhumerus -43.6029 -7.04108 -39.1977
rradius 86.2023 0 0
rwrist -19.0851 0 0
rhand -27.2123 -45.9973 0
rfingers 7.12502 0 0
rthumb -0.625107 -795.976 0
683
root 5.32467 16.3782 1.4507 14.7625 -28.6903 0.120972
lfemur -42.375 26.3693 1.40168
ltibia 122.147 0 0
lfoot 22.4235 -22.7324 0
ltoes 14.4748 0 0
rfemur -32.3629 -8.70221 23.7112
rtibia 55.0168 0 0
rfoot -23.3267 -4.30138 0
rtoes 1.61909 0 0
lowerback 2.03794 -6.61885 -0.369693
upperback -1.75724 -8.8449 0.35795
thorax -2.82876 -4.40391 0.956672
lowerneck -8.33803 -3.6143 0.593916
upperneck 3.03588 -5.03343 2.59357
head 2.46024 -2.41719 0.490955
lclavicle -8.91549e-14 -2.06736e-14 0
lhumerus 26.0518 -52.833 35.5808
lradius 93.0058 0 0
lwrist 31.4726 0 0
lhand -15.7158 -1.84665 0
lfingers 7.12502 0 0
lthumb 10.4744 27.8724 0
rclavicle -8.91549e-14 -2.06736e-14 0
rhumerus -43.6678 -7.08832 -37.9536
rradius 87.0646 0 0
rwrist -19.1796 0 0
rhand -27.1402 -45.9249 0
rfingers 7.12502 0 0
rthumb -0.555473 -795.904 0
684
root 5.33085 16.5442 1.6486 10.5827 -30.6208 4.34581
lfemur -42.1137 25.0828 1.65175
ltibia 120.434 0 0
lfoot 21.9158 -22.2668 0
ltoes 14.9986 0 0
rfemur -32.3905 -8.45854 22.9065
rtibia 56.1936 0 0
rfoot -21.9014 -4.78157 0
rtoes 2.88367 0 0
lowerback 2.17049 -6.42792 -0.417159
upperback -1.74126 -8.59723 0.295587
thorax -2.89089 -4.27978 0.910348
lowerneck -8.28873 -3.70085 0.499101
upperneck 2.92772 -5.14084 2.6685
head 2.42555 -2.47208 0.528488
lclavicle -8.61571e-14 -2.00324e-14 0
lhumerus 25.2112 -51.7936 34.9494
lradius 91.4646 0 0
lwrist 31.1984 0 0
lhand -15.913 -1.89222 0
lfingers 7.12502 0 0
lthumb 10.2841 27.8337 0
rclavicle -8.61571e-14 -2.00324e-14 0
rhumerus -42.6336 -6.94443 -37.6006
rradius 87.4568 0 0
rwrist -18.8716 0 0
rhand -27.1536 -45.5718 0
rfingers 7.12502 0 0
rthumb -0.568399 -795.551 0
685
root 5.33703 16.7102 1.84651 6.40292 -32.5512 8.57065
lfemur -41.8523 23.7962 1.90181
ltibia 118.721 0 0
lfoot 21.408 -21.8012 0
ltoes 15.5224 0 0
rfemur -32.4181 -8.21486 22.1018
rtibia 57.3703 0 0
rfoot -20.4762 -5.26177 0
rtoes 4.14825 0 0
lowerback 2.30305 -6.23698 -0.464626
upperback -1.72529 -8.34957 0.233224
thorax -2.95301 -4.15565 0.864023
lowerneck -8.23943 -3.7874 0.404287
upperneck 2.81955 -5.24826 2.74344
head 2.39086 -2.52697 0.56602
lclavicle -8.31593e-14 -1.93911e-14 0
lhumerus 24.3706 -50.7542 34.3181
lradius 89.9234 0 0
lwrist 30.9243 0 0
lhand -16.1102 -1.93779 0
lfingers 7.12502 0 0
lthumb 10.0938 27.7949 0
rclavicle -8.31593e-14 -1.93911e-14 0
rhumerus -41.5994 -6.80053 -37.2476
rradius 87.849 0 0
rwrist -18.5636 0 0
rhand -27.167 -45.2188 0
rfingers 7.12502 0 0
rthumb -0.581326 -795.198 0
686
root 5.34322 16.8763 2.04441 2.22313 -34.4817 12.7955
lfemur -41.591 22.5097 2.15188
ltibia 117.008 0 0
lfoot 20.9003 -21.3356 0
ltoes 16.0463 0 0
rfemur -32.4457 -7.97119 21.297
rtibia 58.5471 0 0
rfoot -19.0509 -5.74196 0
rtoes 5.41282 0 0
lowerback 2.4356 -6.04605 -0.512092
upperback -1.70931 -8.1019 0.170861
thorax -3.01514 -4.03152 0.817699
lowerneck -8.19013 -3.87395 0.309472
upperneck 2.71139 -5.35567 2.81837
head 2.35617 -2.58185 0.603553
lclavicle -8.01615e-14 -1.87499e-14 0
lhumerus 23.53 -49.7148 33.6867
lradius 88.3822 0 0
lwrist 30.6501 0 0
lhand -16.3073 -1.98336 0
lfingers 7.12502 0 0
lthumb 9.90344 27.7562 0
rclavicle -8.01615e-14 -1.87499e-14 0
rhumerus -40.5652 -6.65664 -36.8947
rradius 88.2412 0 0
rwrist -18.2555 0 0
rhand -27.1804 -44.8657 0
rfingers 7.12502 0 0
rthumb -0.594252 -794.845 0
687
root 5.3494 17.0423 2.24231 -1.95666 -36.4122 17.0203
lfemur -41.3296 21.2232 2.40194
ltibia 115.294 0 0
lfoot 20.3925 -20.8701 0
ltoes 16.5701 0 0
rfemur -32.4734 -7.72752 20.4923
rtibia 59.7239 0 0
rfoot -17.6257 -6.22216 0
rtoes 6.6774 0 0
lowerback 2.56816 -5.85511 -0.559558
upperback -1.69333 -7.85423 0.108498
thorax -3.07726 -3.90739 0.771375
lowerneck -8.14083 -3.96049 0.214657
upperneck 2.60323 -5.46308 2.8933
head 2.32148 -2.63674 0.641086
lclavicle -7.71637e-14 -1.81086e-14 0
lhumerus 22.6894 -48.6754 33.0554
lradius 86.841 0 0
lwrist 30.376 0 0
lhand -16.5045 -2.02893 0
lfingers 7.12502 0 0
lthumb 9.71311 27.7174 0
rclavicle -7.71637e-14 -1.81086e-14 0
rhumerus -39.5309 -6.51274 -36.5417
rradius 88.6334 0 0
rwrist -17.9475 0 0
rhand -27.1937 -44.5126 0
rfingers 7.12502 0 0
rthumb -0.607179 -794.491 0
688
root 5.35558 17.2083 2.44022 -6.13645 -38.3426 21.2452
lfemur -41.0683 19.9367 2.65201
ltibia 113.581 0 0
lfoot 19.8848 -20.4045 0
ltoes 17.0939 0 0
rfemur -32.501 -7.48385 19.6876
rtibia 60.9006 0 0
rfoot -16.2004 -6.70235 0
rtoes 7.94198 0 0
lowerback 2.70071 -5.66418 -0.607025
upperback -1.67735 -7.60657 0.0461355
thorax -3.13939 -3.78326 0.725051
lowerneck -8.09153 -4.04704 0.119842
upperneck 2.49507 -5.57049 2.96823
head 2.28679 -2.69163 0.678619
lclavicle -7.41659e-14 -1.74674e-14 0
lhumerus 21.8488 -47.636 32.424
lradius 85.2998 0 0
lwrist 30.1018 0 0
lhand -16.7017 -2.0745 0
lfingers 7.12502 0 0
lthumb 9.52279 27.6787 0
rclavicle -7.41659e-14 -1.74674e-14 0
rhumerus -38.4967 -6.36885 -36.1887
rradius 89.0256 0 0
rwrist -17.6395 0 0
rhand -27.2071 -44.1595 0
rfingers 7.12502 0 0
rthumb -0.620105 -794.138 0
689
root 5.36176 17.3743 2.63812 -10.3162 -40.2731 25.47
lfemur -40.8069 18.6501 2.90207
ltibia 111.868 0 0
lfoot 19.377 -19.9389 0
ltoes 17.6177 0 0
rfemur -32.5286 -7.24017 18.8829
rtibia 62.0774 0 0
rfoot -14.7752 -7.18255 0
rtoes 9.20656 0 0
lowerback 2.83326 -5.47324 -0.654491
upperback -1.66138 -7.3589 -0.0162274
thorax -3.20151 -3.65913 0.678726
lowerneck -8.04223 -4.13359 0.0250277
upperneck 2.3869 -5.67791 3.04317
head 2.25211 -2.74652 0.716151
lclavicle -7.11681e-14 -1.68262e-14 0
lhumerus 21.0082 -46.5965 31.7927
lradius 83.7586 0 0
lwrist 29.8277 0 0
lhand -16.8989 -2.12007 0
lfingers 7.12502 0 0
lthumb 9.33247 27.6399 0
rclavicle -7.11681e-14 -1.68262e-14 0
rhumerus -37.4625 -6.22495 -35.8357
rradius 89.4177 0 0
rwrist -17.3315 0 0
rhand -27.2205 -43.8065 0
rfingers 7.12502 0 0
rthumb -0.633032 -793.785 0
690
root 5.36795 17.5403 2.83602 -14.496 -42.2036 29.6948
lfemur -40.5456 17.3636 3.15214
ltibia 110.155 0 0
lfoot 18.8693 -19.4733 0
ltoes 18.1415 0 0
rfemur -32.5562 -6.9965 18.0781
rtibia 63.2542 0 0
rfoot -13.3499 -7.66274 0
rtoes 10.4711 0 0
lowerback 2.96582 -5.28231 -0.701957
upperback -1.6454 -7.11123 -0.0785903
thorax -3.26364 -3.535 0.632402
lowerneck -7.99293 -4.22014 -0.069787
upperneck 2.27874 -5.78532 3.1181
head 2.21742 -2.8014 0.753684
lclavicle -6.81703e-14 -1.61849e-14 0
lhumerus 20.1676 -45.5571 31.1613
lradius 82.2174 0 0
lwrist 29.5535 0 0
lhand -17.0961 -2.16564 0
lfingers 7.12502 0 0
lthumb 9.14215 27.6012 0
rclavicle -6.81703e-14 -1.61849e-14 0
rhumerus -36.4283 -6.08106 -35.4827
rradius 89.8099 0 0
rwrist -17.0234 0 0
rhand -27.2339 -43.4534 0
rfingers 7.12502 0 0
rthumb -0.645958 -793.432 0
